<svg width="24" height="24" viewBox="0 0 24 24" fill="none" xmlns="http://www.w3.org/2000/svg">
<path d="M12.0001 2.09998C16.0001 2.09998 18.9001 5.39998 18.9001 9.59998V11.2C18.9001 11.5 19.1001 11.8 19.6001 12.3L19.9001 12.6C20.9001 13.6 21.4001 14.3 21.4001 15.3C21.4001 15.8 21.4001 16.1 21.1001 16.5C20.7001 17.5 19.7001 17.9 18.3001 17.9H16.3001C15.7001 20.2 14.3001 21.5 12.0001 21.5C9.8001 21.5 8.2001 20.2 7.6001 17.8V17.9H5.7001C4.2001 17.9 3.3001 17.4 2.8001 16.5C2.6001 16.1 2.6001 15.8 2.6001 15.3C2.6001 14.3 3.0001 13.7 4.1001 12.6L4.4001 12.3C4.9001 11.8 5.1001 11.5 5.1001 11.3V9.49998C5.1001 5.39998 8.0001 2.09998 12.0001 2.09998ZM14.5001 17.9H9.5001C10.0001 19.1 10.8001 19.7 12.0001 19.7C13.2001 19.7 14.0001 19.1 14.5001 17.9ZM12.0001 3.89998C9.0001 3.89998 6.9001 6.29998 6.9001 9.59998V11.2C6.9001 12.1 6.5001 12.7 5.7001 13.6L5.4001 13.8C4.6001 14.6 4.4001 15 4.4001 15.3V15.7C4.6001 15.9 4.9001 16.1 5.7001 16.1H18.3001C19.1001 16.1 19.4001 15.9 19.5001 15.7L19.6001 15.3C19.6001 15 19.4001 14.6 18.6001 13.8C18.4998 13.7337 18.3998 13.6671 18.3001 13.6C17.5001 12.6 17.1001 12.1 17.1001 11.2V9.59998C17.1001 6.29998 15.0001 3.99998 12.0001 3.99998V3.89998Z" fill="#8C949D"/>
</svg>
