<svg width="24" height="24" viewBox="0 0 24 24" fill="none" xmlns="http://www.w3.org/2000/svg">
<path fill-rule="evenodd" clip-rule="evenodd" d="M16.7001 3.59999C17.2962 3.50194 17.897 3.43518 18.5001 3.39999C18.7001 3.39999 18.9001 3.59999 19.0001 3.79999V4.19999L19.1001 5.49999L8.9001 7.59999V7.09999C8.87901 6.63356 8.87901 6.16642 8.9001 5.69999L9.4001 5.19999L9.7001 5.09999L10.7001 4.89999L16.7001 3.59999ZM7.1001 14.6H6.9001C5.46609 14.5081 4.04672 14.9339 2.9001 15.8C1.9001 16.6 1.6001 17.6 1.6001 18.5C1.6001 20.4 3.1001 22 5.0001 22C5.9001 22 7.0001 21.6 7.7001 20.7C8.56618 19.5534 8.99199 18.134 8.9001 16.7V9.49999L19.1001 7.39999V12.6H18.9001C17.4661 12.5081 16.0467 12.9339 14.9001 13.8C13.9001 14.6 13.6001 15.6 13.6001 16.5C13.6001 18.4 15.1001 19.9 17.0001 19.9C17.9001 19.9 19.0001 19.5 19.7001 18.6C20.5662 17.4534 20.992 16.034 20.9001 14.6V5.49999V3.99999C20.9001 3.59999 20.7001 3.19999 20.5001 2.79999C20.2001 2.29999 19.7001 1.79999 19.1001 1.69999C18.7001 1.49999 18.2001 1.49999 17.8001 1.59999L16.4001 1.79999L10.4001 3.09999L9.2001 3.29999C8.87353 3.41355 8.56904 3.5827 8.3001 3.79999C7.9001 4.09999 7.6001 4.49999 7.3001 4.99999C7.17685 5.31946 7.1092 5.65768 7.1001 5.99999V6.99999V14.6ZM16.1001 15.2C15.6001 15.6 15.4001 16.1 15.4001 16.5C15.4001 17.4 16.1001 18.1 17.0001 18.1C17.4001 18.1 18.0001 17.9 18.3001 17.5C18.7001 17 19.1001 16.1 19.1001 14.6V14.4H18.9001C17.4001 14.4 16.5001 14.8 16.0001 15.2H16.1001ZM3.3001 18.5C3.3001 18.1 3.5001 17.5 3.9001 17.2C4.4001 16.8 5.3001 16.4 6.8001 16.4H7.0001V16.6C7.0001 18.1 6.6001 19 6.2001 19.5C5.8001 19.9 5.3001 20.1 4.9001 20.1C4.0001 20.1 3.3001 19.4 3.3001 18.5V18.5Z" fill="#8C949D"/>
</svg>
